<svg width="114" height="56" viewBox="0 0 114 56" fill="none" xmlns="http://www.w3.org/2000/svg">
<path d="M58.2 15.75H67V7.91667H64.8V11.8333H62.6V13.7917H58.2V15.75ZM60.4 9.875V11.8333H62.6V9.875H60.4ZM58.2 7.91667V9.875H60.4V7.91667H58.2ZM56 7.91667H58.2V5.95833H56V7.91667ZM53.8 9.875H56V7.91667H53.8V9.875ZM51.6 9.875V11.8333H53.8V9.875H51.6ZM49.4 7.91667V9.875H51.6V7.91667H49.4ZM47.2 5.95833V7.91667H49.4V5.95833H47.2ZM47.2 5.95833V4H45V5.95833H47.2Z" fill="#CE2C22"/>
<path d="M29.5469 32.2041V30.5361H33.1016V32.2041H29.5469ZM41.32 32.1836C41.32 33.0085 41.042 33.6488 40.486 34.1045C39.9346 34.5557 39.1165 34.8018 38.0319 34.8428V36.0391H37.2868V34.8633C36.307 34.8268 35.5436 34.5967 34.9968 34.1729C34.4499 33.7445 34.0899 33.0905 33.9167 32.2109L35.6667 31.8896C35.7533 32.4046 35.9242 32.7829 36.1794 33.0244C36.4391 33.2614 36.8083 33.4027 37.2868 33.4482V30.7754C37.2731 30.7663 37.2389 30.7572 37.1843 30.748C37.1296 30.7344 37.0931 30.7275 37.0749 30.7275C36.3366 30.5589 35.7783 30.3607 35.4001 30.1328C35.0264 29.9004 34.737 29.6087 34.5319 29.2578C34.3268 28.9023 34.2243 28.4694 34.2243 27.959C34.2243 27.2025 34.4841 26.6169 35.0036 26.2021C35.5277 25.7874 36.2888 25.5618 37.2868 25.5254V24.6094H38.0319V25.5254C38.6289 25.5482 39.1257 25.6439 39.5221 25.8125C39.9232 25.9766 40.2445 26.2204 40.486 26.5439C40.7321 26.863 40.9304 27.321 41.0807 27.918L39.2761 28.1846C39.2077 27.7881 39.0733 27.4827 38.8727 27.2686C38.6768 27.0498 38.3965 26.9154 38.0319 26.8652V29.2715L38.1071 29.2852C38.2393 29.2852 38.6403 29.3945 39.3102 29.6133C39.9847 29.832 40.4883 30.1556 40.821 30.584C41.1537 31.0078 41.32 31.541 41.32 32.1836ZM37.2868 26.8379C36.4391 26.9017 36.0153 27.2663 36.0153 27.9316C36.0153 28.1322 36.0495 28.2985 36.1179 28.4307C36.1908 28.5628 36.2933 28.6722 36.4255 28.7588C36.5622 28.8454 36.8493 28.9616 37.2868 29.1074V26.8379ZM39.5427 32.2109C39.5427 31.9831 39.5016 31.7985 39.4196 31.6572C39.3376 31.5114 39.2168 31.3929 39.0573 31.3018C38.9024 31.2106 38.5606 31.0898 38.0319 30.9395V33.4482C39.0391 33.3799 39.5427 32.9674 39.5427 32.2109ZM42.4769 35V33.5713H44.8627V27.002L42.5521 28.4443V26.9336L44.9652 25.3682H46.7836V33.5713H48.9916V35H42.4769ZM49.9434 35V33.667C50.194 33.1156 50.5495 32.5778 51.0098 32.0537C51.4746 31.5296 52.058 30.9827 52.7598 30.4131C53.4343 29.8662 53.906 29.415 54.1748 29.0596C54.4483 28.7041 54.585 28.3555 54.585 28.0137C54.585 27.1751 54.1634 26.7559 53.3204 26.7559C52.9102 26.7559 52.5957 26.8675 52.377 27.0908C52.1628 27.3096 52.0238 27.64 51.96 28.082L50.0254 27.9727C50.1348 27.0794 50.4675 26.3981 51.0235 25.9287C51.584 25.4593 52.3451 25.2246 53.3067 25.2246C54.3457 25.2246 55.1433 25.4616 55.6993 25.9355C56.2552 26.4095 56.5332 27.0749 56.5332 27.9316C56.5332 28.3828 56.4444 28.7907 56.2666 29.1553C56.0889 29.5199 55.861 29.8571 55.583 30.167C55.3051 30.4723 54.9952 30.7594 54.6534 31.0283C54.3161 31.2972 53.988 31.5592 53.669 31.8145C53.35 32.0697 53.0583 32.3271 52.794 32.5869C52.5342 32.8467 52.3405 33.1247 52.2129 33.4209H56.6836V35H49.9434ZM64.5876 30.0303C64.5876 31.7393 64.2754 33.0176 63.6511 33.8652C63.0267 34.7129 62.1404 35.1367 60.9919 35.1367C60.1443 35.1367 59.4789 34.9567 58.9958 34.5967C58.5173 34.2321 58.1778 33.6579 57.9773 32.874L59.782 32.6211C59.9597 33.291 60.3698 33.626 61.0124 33.626C61.5502 33.626 61.9626 33.3685 62.2497 32.8535C62.5414 32.3385 62.6918 31.5752 62.7009 30.5635C62.5277 30.9053 62.2429 31.1742 61.8464 31.3701C61.4545 31.5615 61.0307 31.6572 60.5749 31.6572C59.7273 31.6572 59.0528 31.3701 58.5515 30.7959C58.0547 30.2171 57.8064 29.4355 57.8064 28.4512C57.8064 27.4395 58.098 26.6488 58.6814 26.0791C59.2693 25.5094 60.0987 25.2246 61.1696 25.2246C62.3226 25.2246 63.1794 25.6257 63.74 26.4277C64.3051 27.2253 64.5876 28.4261 64.5876 30.0303ZM62.5573 28.6836C62.5573 28.0866 62.4252 27.6126 62.1609 27.2617C61.9011 26.9062 61.5547 26.7285 61.1218 26.7285C60.698 26.7285 60.363 26.8835 60.1169 27.1934C59.8754 27.4987 59.7546 27.9225 59.7546 28.4648C59.7546 28.998 59.8754 29.4264 60.1169 29.75C60.3585 30.069 60.6957 30.2285 61.1286 30.2285C61.5388 30.2285 61.8783 30.0895 62.1472 29.8115C62.4206 29.529 62.5573 29.153 62.5573 28.6836ZM66.1342 35V32.915H68.1098V35H66.1342ZM69.6358 35V33.667C69.8865 33.1156 70.2419 32.5778 70.7022 32.0537C71.1671 31.5296 71.7504 30.9827 72.4522 30.4131C73.1267 29.8662 73.5984 29.415 73.8673 29.0596C74.1407 28.7041 74.2774 28.3555 74.2774 28.0137C74.2774 27.1751 73.8559 26.7559 73.0128 26.7559C72.6026 26.7559 72.2882 26.8675 72.0694 27.0908C71.8552 27.3096 71.7162 27.64 71.6524 28.082L69.7178 27.9727C69.8272 27.0794 70.1599 26.3981 70.7159 25.9287C71.2764 25.4593 72.0375 25.2246 72.9991 25.2246C74.0382 25.2246 74.8357 25.4616 75.3917 25.9355C75.9477 26.4095 76.2257 27.0749 76.2257 27.9316C76.2257 28.3828 76.1368 28.7907 75.9591 29.1553C75.7813 29.5199 75.5535 29.8571 75.2755 30.167C74.9975 30.4723 74.6876 30.7594 74.3458 31.0283C74.0085 31.2972 73.6804 31.5592 73.3614 31.8145C73.0424 32.0697 72.7507 32.3271 72.4864 32.5869C72.2266 32.8467 72.033 33.1247 71.9053 33.4209H76.3761V35H69.6358ZM84.1843 26.8926C83.7514 27.5762 83.3412 28.2393 82.9539 28.8818C82.5711 29.5244 82.2361 30.1715 81.949 30.8232C81.6619 31.4704 81.434 32.138 81.2654 32.8262C81.1013 33.5098 81.0193 34.2344 81.0193 35H79.0164C79.0164 34.1979 79.1212 33.4232 79.3308 32.6758C79.5405 31.9238 79.8435 31.1605 80.24 30.3857C80.6365 29.6064 81.3565 28.4603 82.4002 26.9473H77.615V25.3682H84.1843V26.8926Z" fill="#F81C1C"/>
<path d="M2.77148 47.7734V53H1.13086V47.7734H0.205078V46.6602H1.13086V45.998C1.13086 45.4238 1.2832 44.998 1.58789 44.7207C1.89258 44.4434 2.35547 44.3047 2.97656 44.3047C3.28516 44.3047 3.63281 44.3359 4.01953 44.3984V45.459C3.85938 45.4238 3.69922 45.4062 3.53906 45.4062C3.25781 45.4062 3.05859 45.4629 2.94141 45.5762C2.82812 45.6855 2.77148 45.8809 2.77148 46.1621V46.6602H4.01953V47.7734H2.77148ZM4.89398 53V48.1484C4.89398 47.8008 4.88812 47.5117 4.87641 47.2812C4.86859 47.0469 4.85883 46.8398 4.84711 46.6602H6.41742C6.42914 46.7305 6.44477 46.9453 6.4643 47.3047C6.48383 47.6602 6.49359 47.8965 6.49359 48.0137H6.51703C6.67719 47.5684 6.81977 47.2559 6.94477 47.0762C7.06977 46.8926 7.2182 46.7578 7.39008 46.6719C7.56195 46.582 7.7768 46.5371 8.03461 46.5371C8.24555 46.5371 8.41547 46.5664 8.54437 46.625V48.002C8.27875 47.9434 8.04437 47.9141 7.84125 47.9141C7.43109 47.9141 7.11078 48.0801 6.88031 48.4121C6.65375 48.7441 6.54047 49.2363 6.54047 49.8887V53H4.89398ZM15.6532 49.8242C15.6532 50.8516 15.368 51.6582 14.7977 52.2441C14.2274 52.8262 13.4384 53.1172 12.4305 53.1172C11.4423 53.1172 10.6669 52.8242 10.1044 52.2383C9.54187 51.6523 9.26062 50.8477 9.26062 49.8242C9.26062 48.8047 9.54187 48.0039 10.1044 47.4219C10.6669 46.8359 11.454 46.543 12.4657 46.543C13.5009 46.543 14.2899 46.8262 14.8329 47.3926C15.3798 47.9551 15.6532 48.7656 15.6532 49.8242ZM13.9305 49.8242C13.9305 49.0703 13.8075 48.5234 13.5614 48.1836C13.3153 47.8438 12.9579 47.6738 12.4891 47.6738C11.4891 47.6738 10.9891 48.3906 10.9891 49.8242C10.9891 50.5312 11.1102 51.0703 11.3524 51.4414C11.5985 51.8086 11.952 51.9922 12.413 51.9922C13.4247 51.9922 13.9305 51.2695 13.9305 49.8242ZM20.7581 53V49.4434C20.7581 48.3301 20.4378 47.7734 19.7972 47.7734C19.4652 47.7734 19.1937 47.9434 18.9827 48.2832C18.7757 48.623 18.6722 49.0625 18.6722 49.6016V53H17.0257V48.0781C17.0257 47.7383 17.0198 47.4609 17.0081 47.2461C17.0003 47.0273 16.9905 46.832 16.9788 46.6602H18.5491C18.5609 46.7344 18.5765 46.9336 18.596 47.2578C18.6155 47.5781 18.6253 47.7988 18.6253 47.9199H18.6488C18.8519 47.4355 19.1038 47.084 19.4046 46.8652C19.7093 46.6465 20.0726 46.5371 20.4945 46.5371C21.4632 46.5371 22.0511 46.998 22.2581 47.9199H22.2933C22.5081 47.4277 22.7659 47.0742 23.0667 46.8594C23.3675 46.6445 23.7503 46.5371 24.2152 46.5371C24.8323 46.5371 25.303 46.748 25.6273 47.1699C25.9515 47.5879 26.1136 48.1895 26.1136 48.9746V53H24.4788V49.4434C24.4788 48.3301 24.1585 47.7734 23.5179 47.7734C23.1976 47.7734 22.9339 47.9297 22.7269 48.2422C22.5238 48.5508 22.4124 48.9785 22.3929 49.5254V53H20.7581ZM37.1613 49.8008C37.1613 50.8594 36.9484 51.6777 36.5227 52.2559C36.1008 52.8301 35.5031 53.1172 34.7297 53.1172C34.2844 53.1172 33.8957 53.0215 33.5637 52.8301C33.2355 52.6348 32.9836 52.3555 32.8078 51.9922H32.7727C32.7961 52.1094 32.8078 52.4648 32.8078 53.0586V55.4902H31.1613V48.1191C31.1613 47.5215 31.1457 47.0352 31.1145 46.6602H32.7141C32.7336 46.7305 32.7492 46.8691 32.7609 47.0762C32.7766 47.2832 32.7844 47.4883 32.7844 47.6914H32.8078C33.1789 46.9141 33.8547 46.5254 34.8352 46.5254C35.5734 46.5254 36.1457 46.8105 36.552 47.3809C36.9582 47.9473 37.1613 48.7539 37.1613 49.8008ZM35.4445 49.8008C35.4445 48.3789 35.009 47.668 34.1379 47.668C33.7004 47.668 33.3645 47.8594 33.1301 48.2422C32.8996 48.625 32.7844 49.1602 32.7844 49.8477C32.7844 50.5312 32.8996 51.0605 33.1301 51.4355C33.3645 51.8066 33.6965 51.9922 34.1262 51.9922C35.0051 51.9922 35.4445 51.2617 35.4445 49.8008ZM38.5573 53V48.1484C38.5573 47.8008 38.5514 47.5117 38.5397 47.2812C38.5319 47.0469 38.5221 46.8398 38.5104 46.6602H40.0807C40.0924 46.7305 40.108 46.9453 40.1276 47.3047C40.1471 47.6602 40.1569 47.8965 40.1569 48.0137H40.1803C40.3405 47.5684 40.483 47.2559 40.608 47.0762C40.733 46.8926 40.8815 46.7578 41.0534 46.6719C41.2252 46.582 41.4401 46.5371 41.6979 46.5371C41.9088 46.5371 42.0788 46.5664 42.2077 46.625V48.002C41.942 47.9434 41.7077 47.9141 41.5045 47.9141C41.0944 47.9141 40.7741 48.0801 40.5436 48.4121C40.317 48.7441 40.2038 49.2363 40.2038 49.8887V53H38.5573ZM45.8887 53.1172C44.9356 53.1172 44.2032 52.8359 43.6915 52.2734C43.1798 51.707 42.9239 50.8828 42.9239 49.8008C42.9239 48.7539 43.1837 47.9492 43.7032 47.3867C44.2227 46.8242 44.9591 46.543 45.9122 46.543C46.8223 46.543 47.5177 46.8457 47.9981 47.4512C48.4786 48.0527 48.7188 48.9355 48.7188 50.0996V50.1465H44.6524C44.6524 50.7637 44.7657 51.2305 44.9923 51.5469C45.2227 51.8594 45.5489 52.0156 45.9708 52.0156C46.5528 52.0156 46.92 51.7637 47.0723 51.2598L48.6251 51.3945C48.1759 52.543 47.2637 53.1172 45.8887 53.1172ZM45.8887 47.5801C45.502 47.5801 45.2032 47.7148 44.9923 47.9844C44.7852 48.2539 44.6759 48.6309 44.6641 49.1152H47.1251C47.0938 48.6035 46.9708 48.2207 46.7559 47.9668C46.5411 47.709 46.252 47.5801 45.8887 47.5801ZM53.478 53H51.5093L49.2417 46.6602H50.982L52.0894 50.2051C52.148 50.4004 52.2866 50.8887 52.5054 51.6699C52.5445 51.5098 52.6245 51.2285 52.7456 50.8262C52.8667 50.4238 53.3159 49.0352 54.0933 46.6602H55.8159L53.478 53ZM56.7724 45.5176V44.3047H58.4189V45.5176H56.7724ZM56.7724 53V46.6602H58.4189V53H56.7724ZM66.1957 49.8242C66.1957 50.8516 65.9105 51.6582 65.3402 52.2441C64.7699 52.8262 63.9809 53.1172 62.973 53.1172C61.9848 53.1172 61.2094 52.8242 60.6469 52.2383C60.0844 51.6523 59.8031 50.8477 59.8031 49.8242C59.8031 48.8047 60.0844 48.0039 60.6469 47.4219C61.2094 46.8359 61.9965 46.543 63.0082 46.543C64.0434 46.543 64.8324 46.8262 65.3754 47.3926C65.9223 47.9551 66.1957 48.7656 66.1957 49.8242ZM64.473 49.8242C64.473 49.0703 64.35 48.5234 64.1039 48.1836C63.8578 47.8438 63.5004 47.6738 63.0316 47.6738C62.0316 47.6738 61.5316 48.3906 61.5316 49.8242C61.5316 50.5312 61.6527 51.0703 61.8949 51.4414C62.141 51.8086 62.4945 51.9922 62.9555 51.9922C63.9672 51.9922 64.473 51.2695 64.473 49.8242ZM69.1209 46.6602V50.2168C69.1209 51.3301 69.4959 51.8867 70.2459 51.8867C70.6444 51.8867 70.9647 51.7168 71.2069 51.377C71.453 51.0332 71.576 50.5938 71.576 50.0586V46.6602H73.2225V51.582C73.2225 52.1211 73.2381 52.5938 73.2694 53H71.6991C71.6522 52.4375 71.6288 52.0176 71.6288 51.7402H71.5995C71.3807 52.2207 71.1014 52.5703 70.7616 52.7891C70.4256 53.0078 70.0252 53.1172 69.5604 53.1172C68.8885 53.1172 68.3729 52.9121 68.0135 52.502C67.6541 52.0879 67.4745 51.4824 67.4745 50.6855V46.6602H69.1209ZM80.3079 51.1484C80.3079 51.7617 80.0559 52.2441 79.552 52.5957C79.052 52.9434 78.3587 53.1172 77.472 53.1172C76.6009 53.1172 75.9329 52.9805 75.468 52.707C75.0071 52.4297 74.7005 52 74.5481 51.418L75.9954 51.2012C76.0774 51.502 76.218 51.7148 76.4173 51.8398C76.6204 51.9648 76.972 52.0273 77.472 52.0273C77.9329 52.0273 78.2688 51.9688 78.4798 51.8516C78.6907 51.7344 78.7962 51.5508 78.7962 51.3008C78.7962 51.0977 78.7102 50.9375 78.5384 50.8203C78.3704 50.6992 78.0833 50.5977 77.677 50.5156C76.7473 50.332 76.1204 50.1621 75.7962 50.0059C75.472 49.8457 75.2239 49.6406 75.052 49.3906C74.8841 49.1367 74.8001 48.8262 74.8001 48.459C74.8001 47.8535 75.0325 47.3828 75.4973 47.0469C75.9661 46.707 76.6282 46.5371 77.4837 46.5371C78.2376 46.5371 78.843 46.6836 79.3001 46.9766C79.761 47.2695 80.0481 47.6934 80.1614 48.248L78.7024 48.4004C78.6555 48.1426 78.5403 47.9512 78.3567 47.8262C78.1731 47.6973 77.8821 47.6328 77.4837 47.6328C77.093 47.6328 76.8001 47.6836 76.6048 47.7852C76.4095 47.8828 76.3118 48.0488 76.3118 48.2832C76.3118 48.4668 76.386 48.6133 76.5345 48.7227C76.6868 48.8281 76.9407 48.916 77.2962 48.9863C77.7923 49.0879 78.2317 49.1934 78.6145 49.3027C79.0013 49.4082 79.3098 49.5352 79.5403 49.6836C79.7747 49.832 79.9602 50.0234 80.097 50.2578C80.2376 50.4883 80.3079 50.7852 80.3079 51.1484ZM91.9591 53H90.2189L89.2111 49.1328C89.1642 48.957 89.0724 48.5234 88.9357 47.832L88.631 49.1445L87.6115 53H85.8712L84.2306 46.6602H85.7775L86.8205 51.5059L86.9025 51.0723L87.049 50.3867L88.0451 46.6602H89.8087L90.7814 50.3867C90.8361 50.5898 90.9162 50.9629 91.0216 51.5059L91.1857 50.7324L92.0998 46.6602H93.6232L91.9591 53ZM97.0992 53.1172C96.1461 53.1172 95.4137 52.8359 94.902 52.2734C94.3902 51.707 94.1344 50.8828 94.1344 49.8008C94.1344 48.7539 94.3941 47.9492 94.9137 47.3867C95.4332 46.8242 96.1695 46.543 97.1227 46.543C98.0328 46.543 98.7281 46.8457 99.2086 47.4512C99.6891 48.0527 99.9293 48.9355 99.9293 50.0996V50.1465H95.8629C95.8629 50.7637 95.9762 51.2305 96.2027 51.5469C96.4332 51.8594 96.7594 52.0156 97.1813 52.0156C97.7633 52.0156 98.1305 51.7637 98.2828 51.2598L99.8355 51.3945C99.3863 52.543 98.4742 53.1172 97.0992 53.1172ZM97.0992 47.5801C96.7125 47.5801 96.4137 47.7148 96.2027 47.9844C95.9957 48.2539 95.8863 48.6309 95.8746 49.1152H98.3355C98.3043 48.6035 98.1813 48.2207 97.9664 47.9668C97.7516 47.709 97.4625 47.5801 97.0992 47.5801ZM103.839 53.1172C102.886 53.1172 102.153 52.8359 101.642 52.2734C101.13 51.707 100.874 50.8828 100.874 49.8008C100.874 48.7539 101.134 47.9492 101.653 47.3867C102.173 46.8242 102.909 46.543 103.862 46.543C104.772 46.543 105.468 46.8457 105.948 47.4512C106.429 48.0527 106.669 48.9355 106.669 50.0996V50.1465H102.603C102.603 50.7637 102.716 51.2305 102.942 51.5469C103.173 51.8594 103.499 52.0156 103.921 52.0156C104.503 52.0156 104.87 51.7637 105.022 51.2598L106.575 51.3945C106.126 52.543 105.214 53.1172 103.839 53.1172ZM103.839 47.5801C103.452 47.5801 103.153 47.7148 102.942 47.9844C102.735 48.2539 102.626 48.6309 102.614 49.1152H105.075C105.044 48.6035 104.921 48.2207 104.706 47.9668C104.491 47.709 104.202 47.5801 103.839 47.5801ZM112.032 53L110.338 50.1289L109.629 50.6211V53H107.983V44.3047H109.629V49.2852L111.891 46.6602H113.661L111.434 49.1328L113.831 53H112.032Z" fill="black"/>
</svg>
